<svg width="25" height="28" viewBox="0 0 25 28" fill="none" xmlns="http://www.w3.org/2000/svg">
<path d="M0 24.8V10.4C0 9.89333 0.110937 9.41333 0.332812 8.96C0.554687 8.50667 0.860417 8.13333 1.25 7.84L10.625 0.64C11.1719 0.213333 11.7969 0 12.5 0C13.2031 0 13.8281 0.213333 14.375 0.64L23.75 7.84C24.1406 8.13333 24.4469 8.50667 24.6687 8.96C24.8906 9.41333 25.001 9.89333 25 10.4V24.8C25 25.68 24.6937 26.4336 24.0812 27.0608C23.4687 27.688 22.7333 28.0011 21.875 28H17.1875C16.7448 28 16.374 27.8464 16.075 27.5392C15.776 27.232 15.626 26.8523 15.625 26.4V18.4C15.625 17.9467 15.475 17.5669 15.175 17.2608C14.875 16.9547 14.5042 16.8011 14.0625 16.8H10.9375C10.4948 16.8 10.124 16.9536 9.825 17.2608C9.52604 17.568 9.37604 17.9477 9.375 18.4V26.4C9.375 26.8533 9.225 27.2336 8.925 27.5408C8.625 27.848 8.25416 28.0011 7.8125 28H3.125C2.26562 28 1.53021 27.6869 0.91875 27.0608C0.307291 26.4347 0.00104167 25.6811 0 24.8Z" fill="white"/>
</svg>
