<svg width="338" height="194" viewBox="0 0 338 194" fill="none" xmlns="http://www.w3.org/2000/svg">
<g filter="url(#filter0_d_632_347)">
<path d="M73.6286 60.8238C76.692 55.6189 93.4833 53.4386 93.4833 53.4386C111.096 20.7876 140.404 17.2179 150.489 17.0042C160.574 17.2286 189.893 20.7876 207.495 53.4386C207.495 53.4386 224.286 55.6296 227.35 60.8238C230.35 65.9219 217.738 4.2644 151.121 0.0855018V0C150.91 0.0106877 150.7 0.0320632 150.489 0.0427509C150.279 0.0320632 150.068 0.0106877 149.858 0V0.0855018C83.2401 4.2644 70.6388 65.9219 73.6286 60.8238Z" fill="#A8ABB2"/>
<path d="M301 56.6662C290.388 60.984 269.849 61.6253 269.849 61.6253C281.83 57.4357 280.745 51.2582 280.745 51.2582C280.745 51.2582 253.395 60.8237 252.469 58.3121C251.553 55.8005 260.933 52.4552 260.933 52.4552C257.932 50.1574 253.437 49.9115 249.91 50.6276C240.373 52.5621 235.225 61.8284 225.171 62.8223C220.613 63.2712 216.928 61.7642 212.591 60.8558C211.927 60.7168 211.275 60.642 210.622 60.5993C205.853 60.0542 200.874 60.7596 195.978 61.7642C183.746 64.2652 156.185 85.2024 150.795 104.504C147.226 84.3367 117.075 66.2424 105.011 61.7642C98.8209 59.4664 92.0307 59.2954 85.8827 61.4543C82.5666 62.2986 79.4715 63.1857 75.829 62.8223C65.7753 61.8284 60.6169 52.5621 51.0896 50.6276C47.5629 49.9115 43.0677 50.1681 40.0674 52.4552C40.0674 52.4552 49.4473 55.8005 48.5314 58.3121C47.6155 60.8237 20.2548 51.2582 20.2548 51.2582C20.2548 51.2582 19.1704 57.425 31.1506 61.6253C31.1506 61.6253 10.6116 60.9733 0 56.6662C0 56.6662 2.0739 73.5635 52.1318 82.5625C52.1318 82.5625 46.1206 83.7916 39.4462 83.1931C39.4462 83.1931 51.7633 94.0411 71.4917 88.7721C73.713 108.32 80.1242 127.323 93.852 141.794C104 152.492 117.212 159.728 131.277 163.522C137.309 165.147 144.162 166.76 150.489 166.493C156.816 166.76 163.67 165.147 169.702 163.522C183.777 159.717 196.979 152.482 207.127 141.794C220.855 127.323 227.266 108.32 229.487 88.7721C249.216 94.0411 261.533 83.1931 261.533 83.1931C254.858 83.7916 248.847 82.5625 248.847 82.5625C298.916 73.5635 301 56.6662 301 56.6662ZM151.058 149.724C151.058 149.724 150.953 149.724 150.774 149.724C150.763 149.724 150.742 149.724 150.732 149.724C150.668 149.724 150.584 149.724 150.5 149.724C150.416 149.724 150.332 149.724 150.268 149.724C150.258 149.724 150.237 149.724 150.216 149.724C150.037 149.724 149.932 149.724 149.932 149.724C97.4418 147.426 88.4198 103.297 86.8723 87.8957C86.588 85.1169 88.8935 82.7229 91.6307 83.0007C103.885 84.1978 115.286 88.0026 125.245 95.7084C131.814 100.785 135.783 108.277 137.646 116.325C139.52 124.416 137.183 133.853 140.941 141.484C142.552 144.754 146.184 146.197 149.858 146.432V146.475C150.068 146.475 150.279 146.464 150.489 146.454C150.7 146.454 150.911 146.475 151.121 146.475V146.422C154.785 146.187 158.427 144.744 160.038 141.473C163.796 133.853 161.459 124.405 163.333 116.314C165.196 108.267 169.165 100.764 175.734 95.6977C185.704 88.0026 197.094 84.1978 209.348 82.99C212.096 82.7228 214.391 85.1062 214.107 87.885C212.57 103.297 203.548 147.416 151.058 149.724Z" fill="#A8ABB2"/>
</g>
<defs>
<filter id="filter0_d_632_347" x="0" y="0" width="337.4" height="193.922" filterUnits="userSpaceOnUse" color-interpolation-filters="sRGB">
<feFlood flood-opacity="0" result="BackgroundImageFix"/>
<feColorMatrix in="SourceAlpha" type="matrix" values="0 0 0 0 0 0 0 0 0 0 0 0 0 0 0 0 0 0 127 0" result="hardAlpha"/>
<feOffset dx="27" dy="18"/>
<feGaussianBlur stdDeviation="4.7"/>
<feComposite in2="hardAlpha" operator="out"/>
<feColorMatrix type="matrix" values="0 0 0 0 0 0 0 0 0 0 0 0 0 0 0 0 0 0 0.44 0"/>
<feBlend mode="normal" in2="BackgroundImageFix" result="effect1_dropShadow_632_347"/>
<feBlend mode="normal" in="SourceGraphic" in2="effect1_dropShadow_632_347" result="shape"/>
</filter>
</defs>
</svg>
